<svg
  viewBox="0 0 204 24" fill="white"
  xmlns="http://www.w3.org/2000/svg"
>
  <path
    fill-rule="evenodd"
    clip-rule="evenodd"
    d="M108.371 11.6432L104.473 0.648644H110.385L112.532 7.75129L114.712 0.648644H120.625L116.661 11.6432L118.346 16.3458L123.399 0.648644H130.401L121.549 23.6755H115.967L112.532 15.4377L109.13 23.6755H103.548L94.6962 0.648644H101.665L106.752 16.3458L108.371 11.6432ZM173.043 23.6755L163.728 12.3567V23.6755H157.288V0.648644H162.308L171.722 12.3567V0.648644H178.162V23.6755H173.043ZM21.6014 5.5459L16.68 8.98372C16.5639 8.67066 16.4135 8.37089 16.2315 8.08967C16.0198 7.76178 15.7526 7.47184 15.4414 7.23238C14.9019 6.82157 14.3184 6.53509 13.6908 6.37292C13.2469 6.25669 12.7929 6.18105 12.3348 6.14698C12.176 6.13555 12.0169 6.12978 11.8577 6.12968C11.4749 6.12768 11.0928 6.16196 10.7167 6.23202C10.2788 6.31287 9.85607 6.45881 9.46302 6.66481C8.79141 7.02157 8.24092 7.49183 7.81153 8.07561C7.38214 8.65939 7.06286 9.30804 6.85367 10.0215C6.64448 10.7351 6.53989 11.4486 6.53989 12.1621C6.53989 12.9621 6.66099 13.7296 6.90321 14.4648C7.14543 15.1999 7.49775 15.8539 7.96016 16.4269C8.42258 16.9999 8.98959 17.4485 9.66119 17.7728C10.1907 18.0254 10.7627 18.1812 11.349 18.2327C11.54 18.2506 11.7318 18.2595 11.9237 18.2593C12.4394 18.2575 12.9527 18.1917 13.4515 18.0633C13.5484 18.0388 13.6447 18.0122 13.7404 17.9836C14.3569 17.7999 14.9184 17.5026 15.4249 17.0918C15.7974 16.7862 16.1047 16.4113 16.3292 15.9887C16.4252 15.8106 16.5093 15.6266 16.5809 15.4377L21.8326 18.5188C21.3702 19.6431 20.5995 20.6052 19.5206 21.4052C18.4416 22.2052 17.2195 22.816 15.8543 23.2377C14.7116 23.5961 13.5257 23.8049 12.3274 23.8589C12.1489 23.8664 11.9703 23.8701 11.7916 23.8701C10.6981 23.8767 9.60924 23.7285 8.55874 23.4301C8.03028 23.2774 7.51529 23.0829 7.01882 22.8485C5.57652 22.1674 4.3324 21.2593 3.28646 20.1242C2.24052 18.989 1.43129 17.7134 0.858773 16.2972C0.286258 14.881 0 13.4377 0 11.9675C0 10.5621 0.269743 9.18371 0.809228 7.83237C1.34871 6.48103 2.13592 5.25401 3.17085 4.15132C4.14754 3.11834 5.31379 2.2754 6.60851 1.66665C6.72248 1.61218 6.83724 1.55932 6.95276 1.5081C8.01105 1.04519 9.13539 0.744397 10.2866 0.616212C10.8518 0.550437 11.4206 0.517947 11.9898 0.518915C12.988 0.513221 13.9838 0.614724 14.9595 0.821615C15.9777 1.03848 16.958 1.40089 17.8691 1.89728C18.7426 2.36836 19.5385 2.9666 20.2296 3.67168C20.7723 4.23166 21.2339 4.86232 21.6014 5.5459ZM202.538 5.51347L197.749 9.11344C197.287 8.20534 196.593 7.47562 195.668 6.92427C194.743 6.37292 193.763 6.09725 192.728 6.09725C192.244 6.09435 191.762 6.16025 191.296 6.29292C191.062 6.36077 190.834 6.44718 190.615 6.5513C189.976 6.854 189.42 7.27562 188.947 7.81616C188.568 8.2516 188.262 8.74246 188.039 9.27092C187.972 9.42686 187.911 9.5853 187.857 9.74587C187.674 10.2899 187.558 10.853 187.51 11.4237C187.488 11.68 187.476 11.9372 187.477 12.1945C187.475 12.6548 187.512 13.1144 187.589 13.5685C187.651 13.9395 187.747 14.3044 187.873 14.6593C188.033 15.1113 188.247 15.5431 188.51 15.9458C188.651 16.1603 188.808 16.3645 188.98 16.5566C189.453 17.0864 190.02 17.4972 190.681 17.7891C191.181 18.0075 191.715 18.1448 192.261 18.1959C192.471 18.2168 192.682 18.2271 192.894 18.2269C193.929 18.2269 194.919 17.9728 195.866 17.4647C196.56 17.0882 197.195 16.6156 197.752 16.0615C197.995 15.822 198.226 15.5705 198.443 15.308V21.4701C196.681 23.0485 194.644 23.8377 192.332 23.8377C190.813 23.8377 189.365 23.5728 187.989 23.0431C186.612 22.5133 185.396 21.735 184.339 20.708C183.397 19.7858 182.633 18.7043 182.083 17.5155C181.999 17.3383 181.92 17.1591 181.845 16.9782C181.475 16.0717 181.22 15.1236 181.087 14.1556C180.985 13.4305 180.935 12.6994 180.937 11.9675C180.93 10.8003 181.105 9.63899 181.456 8.5239C181.571 8.16214 181.707 7.80679 181.862 7.4594C182.478 6.07563 183.331 4.85942 184.421 3.81078C185.511 2.76214 186.783 1.94593 188.236 1.36215C189.54 0.844612 190.925 0.552965 192.33 0.500176C192.539 0.491013 192.75 0.486447 192.96 0.486483C194.223 0.478285 195.481 0.655495 196.691 1.01224C197.388 1.22148 198.063 1.49613 198.707 1.83242C199.629 2.30488 200.467 2.92199 201.187 3.65943C201.721 4.21399 202.176 4.8378 202.538 5.51347ZM80.7577 21.0161V23.6755H75.3078V0H81.5834V9.14588C82.0899 8.21615 82.8055 7.50805 83.7304 7.02157C84.3251 6.71343 84.9673 6.50308 85.6314 6.39887C86.0839 6.32593 86.5418 6.29013 87.0003 6.29184C88.0573 6.29184 89.0371 6.51346 89.9399 6.9567C90.8428 7.39994 91.63 8.02156 92.3016 8.82155C92.8178 9.44183 93.2421 10.1307 93.5618 10.8677C93.6759 11.1272 93.7788 11.3914 93.8705 11.6594C94.2448 12.7513 94.432 13.935 94.432 15.2107C94.4358 16.0196 94.3432 16.8262 94.156 17.6139C94.0673 17.9815 93.9554 18.3433 93.8209 18.6972C93.5186 19.5041 93.1022 20.2652 92.5838 20.958C92.4424 21.1455 92.2932 21.3272 92.1364 21.5025C91.4208 22.3025 90.573 22.9187 89.5931 23.3512C88.7465 23.7208 87.8382 23.9352 86.913 23.984C86.7331 23.9946 86.5529 23.9999 86.3727 23.9998C85.8162 24.0029 85.2608 23.9505 84.715 23.8434C84.117 23.7264 83.5402 23.5222 83.0037 23.2377C82.0568 22.7296 81.3082 21.989 80.7577 21.0161ZM33.7234 13.3296V12.8107C33.7251 12.5804 33.7021 12.3505 33.6547 12.125C33.5938 11.846 33.4921 11.6024 33.3497 11.3941C33.2559 11.2567 33.1425 11.1331 33.0132 11.0269C32.8223 10.8747 32.6059 10.7563 32.3735 10.677C31.9385 10.5211 31.3866 10.4432 30.7176 10.4432C29.9626 10.4392 29.211 10.5428 28.4863 10.7505C28.3198 10.799 28.1552 10.8533 27.9927 10.9134C27.1449 11.2269 26.2586 11.6864 25.3338 12.2918L23.5172 8.4648C24.6842 7.72967 25.9118 7.18373 27.2 6.82697C28.1978 6.55419 29.2224 6.38604 30.2563 6.32536C30.6188 6.30287 30.982 6.2917 31.3452 6.29184C33.2839 6.29184 34.914 6.5949 36.2354 7.20103C36.7736 7.44515 37.2779 7.75538 37.7365 8.12426C38.7597 8.96051 39.47 10.1076 39.7553 11.3844C39.917 12.0424 39.9983 12.7634 39.999 13.5473C39.999 13.5504 39.999 13.5535 39.999 13.5567V16.8647C39.999 17.4485 40.0871 17.8539 40.2632 18.0809C40.3487 18.1883 40.4586 18.2745 40.584 18.3328C40.675 18.377 40.7785 18.4126 40.8945 18.4395C40.9912 18.4614 41.0893 18.4771 41.1881 18.4863V23.6755C40.6816 23.7836 40.2027 23.8647 39.7513 23.9187C39.5637 23.9414 39.3756 23.9599 39.1872 23.9742C39.0008 23.9882 38.8246 23.9963 38.6587 23.9987C38.621 23.9994 38.5834 23.9998 38.5457 23.9998C38.2352 24.0011 37.925 23.9834 37.6168 23.9468C37.3022 23.9082 37.0163 23.848 36.7591 23.7663C36.4843 23.6825 36.2237 23.559 35.9859 23.3998C35.5221 23.0798 35.172 22.6251 34.9851 22.0997C34.9282 21.9471 34.8819 21.7909 34.8464 21.6323L34.7142 21.0161C34.2629 21.5928 33.7367 22.1091 33.149 22.5519C32.8003 22.8123 32.4288 23.0418 32.0388 23.2377C31.0259 23.7458 29.947 23.9998 28.8019 23.9998C28.1355 24.0041 27.4719 23.9149 26.8311 23.735C26.4389 23.6227 26.059 23.4724 25.6971 23.2863C24.7723 22.8106 24.0456 22.1566 23.5172 21.3242C22.9887 20.4917 22.7244 19.5566 22.7244 18.5188C22.7182 17.8566 22.8381 17.199 23.0779 16.5801C23.2316 16.192 23.4347 15.8245 23.6823 15.4864C24.177 14.8154 24.8087 14.2531 25.5371 13.8352C25.7967 13.6837 26.0652 13.5474 26.3412 13.4269C27.0975 13.1001 27.8976 12.8813 28.7171 12.7772C29.216 12.7119 29.7189 12.6797 30.2222 12.681C30.6744 12.68 31.1262 12.7057 31.5753 12.7577C31.7692 12.7805 31.9623 12.809 32.1544 12.8431C32.4065 12.8875 32.6559 12.9452 32.9016 13.0161C33.2018 13.1036 33.4757 13.2081 33.7234 13.3296ZM73.0948 17.0269H60.9068C60.9216 17.2491 60.9584 17.4693 61.0165 17.6845C61.0899 17.95 61.1969 18.1857 61.3373 18.3916C61.3632 18.4294 61.3904 18.4665 61.4188 18.5026C61.716 18.8809 62.0904 19.1566 62.5418 19.3296C62.9932 19.5026 63.4611 19.589 63.9455 19.589C64.6282 19.589 65.2722 19.4377 65.8778 19.135C66.1049 19.0239 66.3158 18.8831 66.5046 18.7166C66.7657 18.4856 66.9645 18.1948 67.0834 17.8701L72.4012 19.362C71.9387 20.2701 71.2947 21.0701 70.4689 21.762C69.8032 22.3152 69.0597 22.7713 68.2614 23.1162C68.0264 23.2192 67.7877 23.3137 67.5458 23.3998C66.8496 23.6442 66.1279 23.8122 65.3941 23.9007C64.8479 23.968 64.2979 24.0011 63.7474 23.9998C63.0253 24.0028 62.3042 23.9445 61.5924 23.8254C60.9399 23.716 60.3006 23.5408 59.6847 23.3025C59.0087 23.0423 58.3662 22.7048 57.7705 22.2971C57.3857 22.032 57.026 21.7335 56.6955 21.4052C55.8918 20.6052 55.2808 19.6863 54.8624 18.6485C54.444 17.6107 54.2348 16.5188 54.2348 15.3729C54.2256 14.1655 54.4422 12.9668 54.8737 11.8363C55.0045 11.4988 55.1551 11.169 55.3248 10.8486C56.0514 9.4756 57.1194 8.37291 58.5287 7.54048C59.349 7.06403 60.2447 6.72567 61.1788 6.53941C61.9076 6.38734 62.6923 6.3053 63.5327 6.29329C63.6042 6.2923 63.6758 6.29182 63.7474 6.29184C65.6636 6.29184 67.2967 6.64391 68.6468 7.34805C68.7546 7.4043 68.8611 7.46305 68.9661 7.52427C69.9186 8.06886 70.7559 8.78779 71.4327 9.64209C71.7099 9.99644 71.9565 10.3729 72.1699 10.7675C72.8966 12.108 73.2599 13.5675 73.2599 15.1458C73.2599 15.4702 73.2434 15.7999 73.2104 16.135C73.1967 16.2745 73.1812 16.4139 73.1638 16.553C73.1479 16.6806 73.131 16.8013 73.1131 16.9152C73.1072 16.9525 73.1011 16.9897 73.0948 17.0269ZM139.587 23.5213C140.569 23.7585 141.578 23.8756 142.589 23.8701C142.968 23.8704 143.346 23.8551 143.723 23.8243C144.996 23.7278 146.244 23.4198 147.412 22.9133C148.865 22.2755 150.126 21.4106 151.194 20.3188C152.262 19.2269 153.087 17.9891 153.671 16.6053C154.254 15.2215 154.546 13.7729 154.546 12.2594C154.546 10.7891 154.265 9.35668 153.704 7.9621C153.142 6.56752 152.344 5.30807 151.309 4.18375C150.274 3.05944 149.03 2.16755 147.577 1.5081C146.981 1.23831 146.361 1.02393 145.724 0.867741C144.741 0.630544 143.733 0.513382 142.721 0.518915C142.453 0.51886 142.184 0.526551 141.916 0.541978C140.538 0.612348 139.183 0.923015 137.916 1.45945C136.451 2.08647 135.185 2.94592 134.117 4.03781C133.049 5.12969 132.218 6.36752 131.623 7.75129C131.029 9.13507 130.732 10.5945 130.732 12.1296C130.732 13.6215 131.012 15.0647 131.574 16.4593C132.135 17.8539 132.939 19.108 133.985 20.2215C135.031 21.335 136.281 22.2215 137.734 22.8809C138.33 23.1507 138.95 23.3651 139.587 23.5213ZM43.335 19.0701V0H49.6106V16.8972C49.6096 17.0797 49.6231 17.262 49.651 17.4424C49.6818 17.6351 49.7307 17.8089 49.7974 17.9638C49.8545 18.0991 49.9306 18.2259 50.0235 18.3404C50.2261 18.5862 50.5123 18.7518 50.8294 18.8067C50.9611 18.8317 51.095 18.8439 51.2291 18.8431C51.381 18.8424 51.5326 18.8294 51.6823 18.8042C51.8191 18.7814 51.9545 18.7511 52.0879 18.7134C52.3962 18.6269 52.6824 18.508 52.9467 18.3566L53.7394 22.8971C53.2501 23.1213 52.7441 23.3085 52.2259 23.4571C51.8916 23.5538 51.5536 23.6374 51.2126 23.7079C50.2767 23.9025 49.3904 23.9998 48.5537 23.9998C48.0426 24.0033 47.5324 23.9571 47.0307 23.8618C46.0762 23.6737 45.2957 23.2927 44.6892 22.7187C44.1287 22.1809 43.7314 21.5007 43.5416 20.7541C43.4039 20.2479 43.335 19.6866 43.335 19.0701ZM198.112 23.6755V15.9566H193.785V11.4161H203.43V23.6755H198.112ZM137.272 12.1945C137.272 12.9729 137.382 13.7242 137.602 14.4485C137.822 15.1729 138.152 15.8215 138.593 16.3945C139.033 16.9674 139.589 17.4215 140.261 17.7566C140.656 17.951 141.079 18.0879 141.514 18.1631C141.891 18.229 142.273 18.2612 142.655 18.2593C143.059 18.2614 143.461 18.2245 143.857 18.149C144.278 18.0691 144.685 17.9316 145.067 17.7404C145.749 17.3945 146.305 16.9242 146.735 16.3296C147.164 15.735 147.483 15.0756 147.692 14.3512C147.902 13.6269 148.006 12.8864 148.006 12.1296C148.006 11.3513 147.896 10.6053 147.676 9.89182C147.456 9.17831 147.125 8.53507 146.685 7.9621C146.245 7.38913 145.683 6.94049 145 6.61617C144.567 6.41316 144.105 6.27424 143.63 6.20392C143.296 6.15337 142.96 6.12855 142.622 6.12968C141.698 6.12968 140.899 6.30265 140.228 6.6486C139.556 6.99454 139 7.454 138.56 8.02697C138.119 8.59993 137.794 9.24858 137.585 9.9729C137.376 10.6972 137.272 11.4378 137.272 12.1945ZM81.5834 14.0107V17.0593C81.757 17.3069 81.9508 17.5402 82.1629 17.757C82.1842 17.7787 82.2058 17.8002 82.2275 17.8215C82.3514 17.9439 82.4835 18.0581 82.6228 18.1635C82.7234 18.2394 82.8285 18.3093 82.9376 18.3728C83.1799 18.5134 83.4386 18.6215 83.7138 18.6972C83.9891 18.7728 84.2698 18.8107 84.5561 18.8107C84.8512 18.8122 85.1454 18.7799 85.4329 18.7145C85.6073 18.674 85.7781 18.6194 85.9433 18.5512C86.3617 18.3782 86.725 18.135 87.0333 17.8215C87.3349 17.5127 87.5704 17.1477 87.7259 16.748C87.7318 16.7329 87.7377 16.7177 87.7435 16.7026C87.8496 16.4205 87.921 16.127 87.9563 15.8283C87.98 15.6341 87.9916 15.4387 87.9912 15.2431C87.9912 14.5512 87.8536 13.9188 87.5783 13.3458C87.4288 13.0292 87.2346 12.7347 87.0014 12.4713C86.8386 12.2891 86.6555 12.1255 86.4553 11.9837C85.9918 11.656 85.4348 11.4803 84.8636 11.4814C84.8492 11.4811 84.8348 11.481 84.8203 11.481C84.4148 11.4824 84.0148 11.5734 83.65 11.7473C83.6103 11.7658 83.571 11.7852 83.5322 11.8053C83.1138 12.0215 82.734 12.3188 82.3927 12.6972C82.0569 13.0718 81.7895 13.5004 81.6021 13.9642C81.5958 13.9797 81.5896 13.9952 81.5834 14.0107ZM60.7747 13.3296H66.5219C66.4956 13.0966 66.4486 12.8663 66.3813 12.6413C66.3041 12.3808 66.1902 12.1322 66.0429 11.9026C65.7897 11.5134 65.4594 11.2107 65.052 10.9945C64.6447 10.7783 64.1768 10.6702 63.6483 10.6702C63.1198 10.6702 62.6519 10.7783 62.2445 10.9945C61.8371 11.2107 61.5069 11.5134 61.2536 11.9026C61.0004 12.2918 60.8408 12.7675 60.7747 13.3296ZM33.7234 17.7404V16.4755C33.5377 16.4077 33.349 16.3482 33.1578 16.2972C32.9464 16.2407 32.7329 16.192 32.5178 16.1512C32.0664 16.0647 31.6645 16.0215 31.3122 16.0215C31.0034 16.0193 30.6956 16.0548 30.3958 16.1271C30.0422 16.2127 29.7086 16.364 29.413 16.5728C29.2406 16.6925 29.0877 16.8371 28.9594 17.0017C28.7456 17.2795 28.6321 17.6193 28.6368 17.9674C28.6368 18.2701 28.7248 18.5458 28.901 18.7945C29.0772 19.0431 29.3194 19.2377 29.6277 19.3782C29.8368 19.4721 30.0591 19.5346 30.2872 19.5635C30.4189 19.5808 30.5517 19.5893 30.6846 19.589C30.9488 19.588 31.2122 19.5603 31.4707 19.5065C31.6009 19.4799 31.7298 19.4479 31.8572 19.4107C32.0447 19.3567 32.2283 19.2901 32.4066 19.2114C32.5782 19.1356 32.7425 19.045 32.8976 18.9404C33.0282 18.8478 33.1509 18.745 33.2646 18.633C33.3468 18.5518 33.4228 18.4649 33.4921 18.3728C33.5551 18.2902 33.6075 18.2003 33.6481 18.1051C33.6974 17.9896 33.723 17.8656 33.7234 17.7404Z"
  />
</svg>